<?xml version="1.0" encoding="utf-8"?>
<!-- Generator: Adobe Illustrator 22.1.0, SVG Export Plug-In . SVG Version: 6.00 Build 0)  -->
<svg version="1.1" id="Layer_1" xmlns="http://www.w3.org/2000/svg" xmlns:xlink="http://www.w3.org/1999/xlink" x="0px" y="0px"
	 viewBox="0 0 512 512" style="enable-background:new 0 0 512 512;" xml:space="preserve">
<g>
	<title>adobe-illustrator</title>
	<g>
		<path d="M31,39.5v438.7h450V39.5L31,39.5z M49.7,58.2h412.5v401.2H49.7L49.7,58.2z M187.1,287.9l-14.9,56.2
			c-0.3,1.6-0.9,1.9-2.7,1.9H142c-1.9,0-2.2-0.6-1.9-2.7l53.2-186.5c1-3.4,1.5-6.4,1.8-15.7c0-1.3,0.7-1.8,1.6-1.8H236
			c1.3,0,1.9,0.3,2.2,1.8l59.7,202.4c0.4,1.5,0,2.4-1.5,2.4h-30.9c-1.6,0-2.5-0.4-2.8-1.6l-15.5-56.5L187.1,287.9L187.1,287.9z
			 M239.4,257.4c-5.3-20.7-17.6-66.1-22.3-88.1h-0.4c-4,21.9-13.9,59-21.6,88.1H239.4z M323.8,153.2c0-12.1,8.4-19.2,19.2-19.2
			c11.4,0,19.2,7.8,19.2,19.2c0,12.4-8.1,19.2-19.6,19.2C331.4,172.4,323.7,165.6,323.8,153.2L323.8,153.2z M325.9,195.8
			c0-1.5,0.6-2.1,2.1-2.1h29.4c1.7,0,2.3,0.6,2.3,2.2v148c0,1.5-0.3,2.1-2.2,2.1h-29c-1.9,0-2.5-0.9-2.5-2.4V195.8L325.9,195.8z"/>
	</g>
</g>
</svg>
