<?xml version="1.0" encoding="UTF-8" standalone="no"?>
<!DOCTYPE svg PUBLIC "-//W3C//DTD SVG 1.1//EN" "http://www.w3.org/Graphics/SVG/1.1/DTD/svg11.dtd">
<svg width="100%" height="100%" viewBox="0 0 504 504" version="1.1" xmlns="http://www.w3.org/2000/svg" xmlns:xlink="http://www.w3.org/1999/xlink" xml:space="preserve" xmlns:serif="http://www.serif.com/" style="fill-rule:evenodd;clip-rule:evenodd;stroke-linejoin:round;stroke-miterlimit:2;">
    <g transform="matrix(1,0,0,1,-10642.5,-1409.67)">
        <g transform="matrix(1,0,0,1,9254.8,0)">
            <g transform="matrix(1.25,0,0,1.25,-5496.88,411.333)">
                <path d="M5910.34,800C5910.34,799.264 5909.74,798.667 5909,798.667L5509,798.667C5508.27,798.667 5507.67,799.264 5507.67,800L5507.67,1200C5507.67,1200.74 5508.27,1201.33 5509,1201.33L5909,1201.33C5909.74,1201.33 5910.34,1200.74 5910.34,1200L5910.34,800ZM5907.67,801.333L5907.67,1198.67C5907.67,1198.67 5535.47,1198.67 5510.34,1198.67C5510.34,1198.67 5510.34,801.333 5510.34,801.333L5907.67,801.333Z" style="fill:rgb(0,16,55);"/>
            </g>
            <g transform="matrix(1,0,0,0.733333,-4149.63,931.333)">
                <path d="M5709,913.636C5709,906.105 5704.52,900 5699,900C5679.84,900 5638.16,900 5619,900C5613.48,900 5609,906.105 5609,913.636C5609,963.608 5609,1136.39 5609,1186.36C5609,1193.89 5613.48,1200 5619,1200C5638.16,1200 5679.84,1200 5699,1200C5704.52,1200 5709,1193.89 5709,1186.36C5709,1136.39 5709,963.608 5709,913.636Z" style="fill:rgb(0,16,55);"/>
            </g>
            <g transform="matrix(1,0,0,0.2,-4149.63,1331.33)">
                <path d="M5709,950C5709,922.386 5704.52,900 5699,900L5619,900C5613.48,900 5609,922.386 5609,950L5609,1150C5609,1177.61 5613.48,1200 5619,1200L5699,1200C5704.52,1200 5709,1177.61 5709,1150L5709,950Z" style="fill:rgb(57,0,190);"/>
            </g>
            <g transform="matrix(9.18485e-17,1.5,-0.3,1.83697e-17,1959.37,-6752.17)">
                <path d="M5709,933.333C5709,914.924 5706.02,900 5702.34,900C5684.15,900 5633.85,900 5615.67,900C5611.99,900 5609,914.924 5609,933.333C5609,991.051 5609,1108.95 5609,1166.67C5609,1185.08 5611.99,1200 5615.67,1200C5633.85,1200 5684.15,1200 5702.34,1200C5706.02,1200 5709,1185.08 5709,1166.67C5709,1108.95 5709,991.051 5709,933.333Z" style="fill:rgb(40,0,133);"/>
            </g>
            <g transform="matrix(1,0,0,1,-3900.96,611.333)">
                <path d="M5709,910C5709,907.348 5707.95,904.804 5706.07,902.929C5704.2,901.054 5701.65,900 5699,900C5679.84,900 5638.16,900 5619,900C5616.35,900 5613.81,901.054 5611.93,902.929C5610.06,904.804 5609,907.348 5609,910C5609,955.688 5609,1144.31 5609,1190C5609,1192.65 5610.06,1195.2 5611.93,1197.07C5613.81,1198.95 5616.35,1200 5619,1200L5699,1200C5701.65,1200 5704.2,1198.95 5706.07,1197.07C5707.95,1195.2 5709,1192.65 5709,1190C5709,1144.31 5709,955.688 5709,910Z" style="fill:rgb(0,16,55);"/>
            </g>
        </g>
    </g>
</svg>
